<svg width="371" height="160" viewBox="0 0 371 160" fill="none" xmlns="http://www.w3.org/2000/svg">
<g filter="url(#filter0_d_123_120)">
<rect x="4" y="2" width="363" height="152" rx="6" fill="white" shape-rendering="crispEdges"/>
<path d="M82.125 75.0469C82.125 74.6406 82.0625 74.276 81.9375 73.9531C81.8229 73.6198 81.6042 73.3177 81.2812 73.0469C80.9583 72.7656 80.5052 72.4896 79.9219 72.2188C79.3385 71.9479 78.5833 71.6667 77.6562 71.375C76.625 71.0417 75.6458 70.6667 74.7188 70.25C73.8021 69.8333 72.9896 69.349 72.2812 68.7969C71.5833 68.2344 71.0312 67.5833 70.625 66.8438C70.2292 66.1042 70.0312 65.2448 70.0312 64.2656C70.0312 63.3177 70.2396 62.4583 70.6562 61.6875C71.0729 60.9062 71.6562 60.2396 72.4062 59.6875C73.1562 59.125 74.0417 58.6927 75.0625 58.3906C76.0938 58.0885 77.224 57.9375 78.4531 57.9375C80.1302 57.9375 81.5938 58.2396 82.8438 58.8438C84.0938 59.4479 85.0625 60.276 85.75 61.3281C86.4479 62.3802 86.7969 63.5833 86.7969 64.9375H82.1406C82.1406 64.2708 82 63.6875 81.7188 63.1875C81.4479 62.6771 81.0312 62.276 80.4688 61.9844C79.9167 61.6927 79.2188 61.5469 78.375 61.5469C77.5625 61.5469 76.8854 61.6719 76.3438 61.9219C75.8021 62.1615 75.3958 62.4896 75.125 62.9062C74.8542 63.3125 74.7188 63.7708 74.7188 64.2812C74.7188 64.6667 74.8125 65.0156 75 65.3281C75.1979 65.6406 75.4896 65.9323 75.875 66.2031C76.2604 66.474 76.7344 66.7292 77.2969 66.9688C77.8594 67.2083 78.5104 67.4427 79.25 67.6719C80.4896 68.0469 81.5781 68.4688 82.5156 68.9375C83.4635 69.4062 84.2552 69.9323 84.8906 70.5156C85.526 71.099 86.0052 71.7604 86.3281 72.5C86.651 73.2396 86.8125 74.0781 86.8125 75.0156C86.8125 76.0052 86.6198 76.8906 86.2344 77.6719C85.849 78.4531 85.2917 79.1146 84.5625 79.6562C83.8333 80.1979 82.9635 80.6094 81.9531 80.8906C80.9427 81.1719 79.8125 81.3125 78.5625 81.3125C77.4375 81.3125 76.3281 81.1667 75.2344 80.875C74.1406 80.5729 73.1458 80.1198 72.25 79.5156C71.3646 78.9115 70.6562 78.1406 70.125 77.2031C69.5938 76.2656 69.3281 75.1562 69.3281 73.875H74.0312C74.0312 74.5833 74.1406 75.1823 74.3594 75.6719C74.5781 76.1615 74.8854 76.5573 75.2812 76.8594C75.6875 77.1615 76.1667 77.3802 76.7188 77.5156C77.2812 77.651 77.8958 77.7188 78.5625 77.7188C79.375 77.7188 80.0417 77.6042 80.5625 77.375C81.0938 77.1458 81.4844 76.8281 81.7344 76.4219C81.9948 76.0156 82.125 75.5573 82.125 75.0469ZM97.5 81.3125C96.1875 81.3125 95.0104 81.1042 93.9688 80.6875C92.9271 80.2604 92.0417 79.6719 91.3125 78.9219C90.5938 78.1719 90.0417 77.3021 89.6562 76.3125C89.2708 75.3125 89.0781 74.25 89.0781 73.125V72.5C89.0781 71.2188 89.2604 70.0469 89.625 68.9844C89.9896 67.9219 90.5104 67 91.1875 66.2188C91.875 65.4375 92.7083 64.8385 93.6875 64.4219C94.6667 63.9948 95.7708 63.7812 97 63.7812C98.1979 63.7812 99.2604 63.9792 100.188 64.375C101.115 64.7708 101.891 65.3333 102.516 66.0625C103.151 66.7917 103.63 67.6667 103.953 68.6875C104.276 69.6979 104.438 70.8229 104.438 72.0625V73.9375H91V70.9375H100.016V70.5938C100.016 69.9688 99.901 69.4115 99.6719 68.9219C99.4531 68.4219 99.1198 68.026 98.6719 67.7344C98.224 67.4427 97.651 67.2969 96.9531 67.2969C96.3594 67.2969 95.849 67.4271 95.4219 67.6875C94.9948 67.9479 94.6458 68.3125 94.375 68.7812C94.1146 69.25 93.9167 69.8021 93.7812 70.4375C93.6562 71.0625 93.5938 71.75 93.5938 72.5V73.125C93.5938 73.8021 93.6875 74.4271 93.875 75C94.0729 75.5729 94.349 76.0677 94.7031 76.4844C95.0677 76.901 95.5052 77.224 96.0156 77.4531C96.5365 77.6823 97.125 77.7969 97.7812 77.7969C98.5938 77.7969 99.349 77.6406 100.047 77.3281C100.755 77.0052 101.365 76.5208 101.875 75.875L104.062 78.25C103.708 78.7604 103.224 79.25 102.609 79.7188C102.005 80.1875 101.276 80.5729 100.422 80.875C99.5677 81.1667 98.5938 81.3125 97.5 81.3125ZM117 76.9531V64.0938H121.5V81H117.266L117 76.9531ZM117.5 73.4844L118.828 73.4531C118.828 74.5781 118.698 75.625 118.438 76.5938C118.177 77.5521 117.786 78.3854 117.266 79.0938C116.745 79.7917 116.089 80.3385 115.297 80.7344C114.505 81.1198 113.573 81.3125 112.5 81.3125C111.677 81.3125 110.917 81.1979 110.219 80.9688C109.531 80.7292 108.938 80.3594 108.438 79.8594C107.948 79.349 107.562 78.6979 107.281 77.9062C107.01 77.1042 106.875 76.1406 106.875 75.0156V64.0938H111.375V75.0469C111.375 75.5469 111.432 75.9688 111.547 76.3125C111.672 76.6562 111.844 76.9375 112.062 77.1562C112.281 77.375 112.536 77.5312 112.828 77.625C113.13 77.7188 113.464 77.7656 113.828 77.7656C114.755 77.7656 115.484 77.5781 116.016 77.2031C116.557 76.8281 116.938 76.3177 117.156 75.6719C117.385 75.0156 117.5 74.2865 117.5 73.4844ZM138.172 58.25V81H133.5V58.25H138.172ZM144.703 58.25H148.672L154.516 74.9531L160.359 58.25H164.328L156.109 81H152.922L144.703 58.25ZM142.562 58.25H146.516L147.234 74.5312V81H142.562V58.25ZM162.516 58.25H166.484V81H161.797V74.5312L162.516 58.25ZM183.781 73.4531H188.453C188.359 74.9844 187.938 76.3438 187.188 77.5312C186.448 78.7188 185.411 79.6458 184.078 80.3125C182.755 80.9792 181.161 81.3125 179.297 81.3125C177.839 81.3125 176.531 81.0625 175.375 80.5625C174.219 80.0521 173.229 79.3229 172.406 78.375C171.594 77.4271 170.974 76.2812 170.547 74.9375C170.12 73.5938 169.906 72.0885 169.906 70.4219V68.8438C169.906 67.1771 170.125 65.6719 170.562 64.3281C171.01 62.974 171.646 61.8229 172.469 60.875C173.302 59.9271 174.297 59.1979 175.453 58.6875C176.609 58.1771 177.901 57.9219 179.328 57.9219C181.224 57.9219 182.823 58.2656 184.125 58.9531C185.438 59.6406 186.453 60.5885 187.172 61.7969C187.901 63.0052 188.339 64.3802 188.484 65.9219H183.797C183.745 65.0052 183.562 64.2292 183.25 63.5938C182.938 62.9479 182.464 62.4635 181.828 62.1406C181.203 61.8073 180.37 61.6406 179.328 61.6406C178.547 61.6406 177.865 61.7865 177.281 62.0781C176.698 62.3698 176.208 62.8125 175.812 63.4062C175.417 64 175.12 64.75 174.922 65.6562C174.734 66.5521 174.641 67.6042 174.641 68.8125V70.4219C174.641 71.599 174.729 72.6354 174.906 73.5312C175.083 74.4167 175.354 75.1667 175.719 75.7812C176.094 76.3854 176.573 76.8438 177.156 77.1562C177.75 77.4583 178.464 77.6094 179.297 77.6094C180.276 77.6094 181.083 77.4531 181.719 77.1406C182.354 76.8281 182.839 76.3646 183.172 75.75C183.516 75.1354 183.719 74.3698 183.781 73.4531ZM207 81.3125C205.688 81.3125 204.51 81.1042 203.469 80.6875C202.427 80.2604 201.542 79.6719 200.812 78.9219C200.094 78.1719 199.542 77.3021 199.156 76.3125C198.771 75.3125 198.578 74.25 198.578 73.125V72.5C198.578 71.2188 198.76 70.0469 199.125 68.9844C199.49 67.9219 200.01 67 200.688 66.2188C201.375 65.4375 202.208 64.8385 203.188 64.4219C204.167 63.9948 205.271 63.7812 206.5 63.7812C207.698 63.7812 208.76 63.9792 209.688 64.375C210.615 64.7708 211.391 65.3333 212.016 66.0625C212.651 66.7917 213.13 67.6667 213.453 68.6875C213.776 69.6979 213.938 70.8229 213.938 72.0625V73.9375H200.5V70.9375H209.516V70.5938C209.516 69.9688 209.401 69.4115 209.172 68.9219C208.953 68.4219 208.62 68.026 208.172 67.7344C207.724 67.4427 207.151 67.2969 206.453 67.2969C205.859 67.2969 205.349 67.4271 204.922 67.6875C204.495 67.9479 204.146 68.3125 203.875 68.7812C203.615 69.25 203.417 69.8021 203.281 70.4375C203.156 71.0625 203.094 71.75 203.094 72.5V73.125C203.094 73.8021 203.188 74.4271 203.375 75C203.573 75.5729 203.849 76.0677 204.203 76.4844C204.568 76.901 205.005 77.224 205.516 77.4531C206.036 77.6823 206.625 77.7969 207.281 77.7969C208.094 77.7969 208.849 77.6406 209.547 77.3281C210.255 77.0052 210.865 76.5208 211.375 75.875L213.562 78.25C213.208 78.7604 212.724 79.25 212.109 79.7188C211.505 80.1875 210.776 80.5729 209.922 80.875C209.068 81.1667 208.094 81.3125 207 81.3125ZM203.828 61.7969L206.891 56.9844H211.781L207.484 61.7969H203.828ZM234.453 77.3125V57H238.984V81H234.906L234.453 77.3125ZM223.766 72.75V72.4219C223.766 71.1302 223.911 69.9583 224.203 68.9062C224.495 67.8438 224.922 66.9323 225.484 66.1719C226.047 65.4115 226.74 64.8229 227.562 64.4062C228.385 63.9896 229.323 63.7812 230.375 63.7812C231.365 63.7812 232.229 63.9896 232.969 64.4062C233.719 64.8229 234.354 65.4167 234.875 66.1875C235.406 66.9479 235.833 67.849 236.156 68.8906C236.479 69.9219 236.714 71.0521 236.859 72.2812V73C236.714 74.1771 236.479 75.2708 236.156 76.2812C235.833 77.2917 235.406 78.1771 234.875 78.9375C234.354 79.6875 233.719 80.2708 232.969 80.6875C232.219 81.1042 231.344 81.3125 230.344 81.3125C229.292 81.3125 228.354 81.099 227.531 80.6719C226.719 80.2448 226.031 79.6458 225.469 78.875C224.917 78.1042 224.495 77.1979 224.203 76.1562C223.911 75.1146 223.766 73.9792 223.766 72.75ZM228.266 72.4219V72.75C228.266 73.4479 228.318 74.099 228.422 74.7031C228.536 75.3073 228.719 75.8438 228.969 76.3125C229.229 76.7708 229.562 77.1302 229.969 77.3906C230.385 77.6406 230.891 77.7656 231.484 77.7656C232.255 77.7656 232.891 77.5938 233.391 77.25C233.891 76.8958 234.271 76.4115 234.531 75.7969C234.802 75.1823 234.958 74.474 235 73.6719V71.625C234.969 70.9688 234.875 70.3802 234.719 69.8594C234.573 69.3281 234.354 68.875 234.062 68.5C233.781 68.125 233.427 67.8333 233 67.625C232.583 67.4167 232.089 67.3125 231.516 67.3125C230.932 67.3125 230.432 67.4479 230.016 67.7188C229.599 67.9792 229.26 68.3385 229 68.7969C228.75 69.2552 228.562 69.7969 228.438 70.4219C228.323 71.0365 228.266 71.7031 228.266 72.4219ZM250.281 81.3125C248.969 81.3125 247.792 81.1042 246.75 80.6875C245.708 80.2604 244.823 79.6719 244.094 78.9219C243.375 78.1719 242.823 77.3021 242.438 76.3125C242.052 75.3125 241.859 74.25 241.859 73.125V72.5C241.859 71.2188 242.042 70.0469 242.406 68.9844C242.771 67.9219 243.292 67 243.969 66.2188C244.656 65.4375 245.49 64.8385 246.469 64.4219C247.448 63.9948 248.552 63.7812 249.781 63.7812C250.979 63.7812 252.042 63.9792 252.969 64.375C253.896 64.7708 254.672 65.3333 255.297 66.0625C255.932 66.7917 256.411 67.6667 256.734 68.6875C257.057 69.6979 257.219 70.8229 257.219 72.0625V73.9375H243.781V70.9375H252.797V70.5938C252.797 69.9688 252.682 69.4115 252.453 68.9219C252.234 68.4219 251.901 68.026 251.453 67.7344C251.005 67.4427 250.432 67.2969 249.734 67.2969C249.141 67.2969 248.63 67.4271 248.203 67.6875C247.776 67.9479 247.427 68.3125 247.156 68.7812C246.896 69.25 246.698 69.8021 246.562 70.4375C246.438 71.0625 246.375 71.75 246.375 72.5V73.125C246.375 73.8021 246.469 74.4271 246.656 75C246.854 75.5729 247.13 76.0677 247.484 76.4844C247.849 76.901 248.286 77.224 248.797 77.4531C249.318 77.6823 249.906 77.7969 250.562 77.7969C251.375 77.7969 252.13 77.6406 252.828 77.3281C253.536 77.0052 254.146 76.5208 254.656 75.875L256.844 78.25C256.49 78.7604 256.005 79.25 255.391 79.7188C254.786 80.1875 254.057 80.5729 253.203 80.875C252.349 81.1667 251.375 81.3125 250.281 81.3125ZM283.125 77.4844V81H267.562V78L274.922 70.1094C275.661 69.2865 276.245 68.5625 276.672 67.9375C277.099 67.3021 277.406 66.7344 277.594 66.2344C277.792 65.724 277.891 65.2396 277.891 64.7812C277.891 64.0938 277.776 63.5052 277.547 63.0156C277.318 62.5156 276.979 62.1302 276.531 61.8594C276.094 61.5885 275.552 61.4531 274.906 61.4531C274.219 61.4531 273.625 61.6198 273.125 61.9531C272.635 62.2865 272.26 62.75 272 63.3438C271.75 63.9375 271.625 64.6094 271.625 65.3594H267.109C267.109 64.0052 267.432 62.7656 268.078 61.6406C268.724 60.5052 269.635 59.6042 270.812 58.9375C271.99 58.2604 273.385 57.9219 275 57.9219C276.594 57.9219 277.938 58.1823 279.031 58.7031C280.135 59.2135 280.969 59.9531 281.531 60.9219C282.104 61.8802 282.391 63.026 282.391 64.3594C282.391 65.1094 282.271 65.8438 282.031 66.5625C281.792 67.2708 281.448 67.9792 281 68.6875C280.562 69.3854 280.031 70.0938 279.406 70.8125C278.781 71.5312 278.089 72.276 277.328 73.0469L273.375 77.4844H283.125ZM301.266 74.7656C301.266 76.1927 300.932 77.3958 300.266 78.375C299.599 79.3438 298.682 80.0781 297.516 80.5781C296.359 81.0677 295.047 81.3125 293.578 81.3125C292.109 81.3125 290.792 81.0677 289.625 80.5781C288.458 80.0781 287.536 79.3438 286.859 78.375C286.182 77.3958 285.844 76.1927 285.844 74.7656C285.844 73.8073 286.036 72.9427 286.422 72.1719C286.807 71.3906 287.344 70.724 288.031 70.1719C288.729 69.6094 289.547 69.1823 290.484 68.8906C291.422 68.5885 292.443 68.4375 293.547 68.4375C295.026 68.4375 296.349 68.6979 297.516 69.2188C298.682 69.7396 299.599 70.474 300.266 71.4219C300.932 72.3698 301.266 73.4844 301.266 74.7656ZM296.734 74.4688C296.734 73.7708 296.599 73.1719 296.328 72.6719C296.068 72.1615 295.698 71.7708 295.219 71.5C294.74 71.2292 294.182 71.0938 293.547 71.0938C292.911 71.0938 292.354 71.2292 291.875 71.5C291.396 71.7708 291.021 72.1615 290.75 72.6719C290.49 73.1719 290.359 73.7708 290.359 74.4688C290.359 75.1562 290.49 75.75 290.75 76.25C291.021 76.75 291.396 77.1354 291.875 77.4062C292.365 77.6667 292.932 77.7969 293.578 77.7969C294.224 77.7969 294.781 77.6667 295.25 77.4062C295.729 77.1354 296.094 76.75 296.344 76.25C296.604 75.75 296.734 75.1562 296.734 74.4688ZM300.781 64.2812C300.781 65.4375 300.474 66.4635 299.859 67.3594C299.245 68.2448 298.391 68.9375 297.297 69.4375C296.214 69.9375 294.974 70.1875 293.578 70.1875C292.172 70.1875 290.922 69.9375 289.828 69.4375C288.734 68.9375 287.88 68.2448 287.266 67.3594C286.651 66.4635 286.344 65.4375 286.344 64.2812C286.344 62.9062 286.651 61.75 287.266 60.8125C287.891 59.8646 288.745 59.1458 289.828 58.6562C290.922 58.1667 292.161 57.9219 293.547 57.9219C294.953 57.9219 296.198 58.1667 297.281 58.6562C298.375 59.1458 299.229 59.8646 299.844 60.8125C300.469 61.75 300.781 62.9062 300.781 64.2812ZM296.281 64.4844C296.281 63.8698 296.172 63.3385 295.953 62.8906C295.734 62.4323 295.422 62.0781 295.016 61.8281C294.62 61.5781 294.13 61.4531 293.547 61.4531C292.984 61.4531 292.5 61.5729 292.094 61.8125C291.698 62.0521 291.391 62.401 291.172 62.8594C290.964 63.3073 290.859 63.849 290.859 64.4844C290.859 65.099 290.964 65.6406 291.172 66.1094C291.391 66.5677 291.703 66.9271 292.109 67.1875C292.516 67.4479 293.005 67.5781 293.578 67.5781C294.151 67.5781 294.635 67.4479 295.031 67.1875C295.438 66.9271 295.745 66.5677 295.953 66.1094C296.172 65.6406 296.281 65.099 296.281 64.4844Z" fill="#0C3440"/>
</g>
<g clip-path="url(#clip0_123_120)">
<path d="M346 24.41L344.59 23L339 28.59L333.41 23L332 24.41L337.59 30L332 35.59L333.41 37L339 31.41L344.59 37L346 35.59L340.41 30L346 24.41Z" fill="#0C3440" fill-opacity="0.6"/>
</g>
<defs>
<filter id="filter0_d_123_120" x="0" y="0" width="371" height="160" filterUnits="userSpaceOnUse" color-interpolation-filters="sRGB">
<feFlood flood-opacity="0" result="BackgroundImageFix"/>
<feColorMatrix in="SourceAlpha" type="matrix" values="0 0 0 0 0 0 0 0 0 0 0 0 0 0 0 0 0 0 127 0" result="hardAlpha"/>
<feOffset dy="2"/>
<feGaussianBlur stdDeviation="2"/>
<feComposite in2="hardAlpha" operator="out"/>
<feColorMatrix type="matrix" values="0 0 0 0 0 0 0 0 0 0 0 0 0 0 0 0 0 0 0.1 0"/>
<feBlend mode="normal" in2="BackgroundImageFix" result="effect1_dropShadow_123_120"/>
<feBlend mode="normal" in="SourceGraphic" in2="effect1_dropShadow_123_120" result="shape"/>
</filter>
<clipPath id="clip0_123_120">
<rect width="24" height="24" fill="white" transform="translate(327 18)"/>
</clipPath>
</defs>
</svg>
